<?xml version="1.0" encoding="iso-8859-1"?>
<!-- Uploaded to: SVG Repo, www.svgrepo.com, Generator: SVG Repo Mixer Tools -->
<svg height="800px" width="800px" version="1.1" id="Layer_1" xmlns="http://www.w3.org/2000/svg" xmlns:xlink="http://www.w3.org/1999/xlink" 
	 viewBox="0 0 512 512" xml:space="preserve">
<path style="fill:#514439;" d="M322.37,123.259L256,170.667l-66.37-47.407L256,75.852L322.37,123.259z"/>
<g>
	<path style="fill:#6B5B4B;" d="M417.185,189.63l-66.37,47.407l-66.37-47.407l66.37-47.407L417.185,189.63z"/>
	<path style="fill:#6B5B4B;" d="M227.556,189.63l-66.37,47.407l-66.37-47.407l66.37-47.407L227.556,189.63z"/>
</g>
<g>
	<path style="fill:#514439;" d="M322.37,256L256,303.407L189.63,256L256,208.593L322.37,256z"/>
	<path style="fill:#514439;" d="M322.37,388.741L256,436.148l-66.37-47.407L256,341.333L322.37,388.741z"/>
	<path style="fill:#514439;" d="M512,256l-66.37,47.407L379.259,256l66.37-47.407L512,256z"/>
</g>
<path style="fill:#6B5B4B;" d="M417.185,322.37l-66.37,47.407l-66.37-47.407l66.37-47.407L417.185,322.37z"/>
<path style="fill:#514439;" d="M132.741,256l-66.37,47.407L0,256l66.37-47.407L132.741,256z"/>
<path style="fill:#6B5B4B;" d="M227.556,322.37l-66.37,47.407l-66.37-47.407l66.37-47.407L227.556,322.37z"/>
</svg>