<svg width="32" height="22" viewBox="0 0 32 22" fill="none" xmlns="http://www.w3.org/2000/svg">
<path fill-rule="evenodd" clip-rule="evenodd" d="M0 7.99995C0 3.5817 3.5817 0 7.99994 0H15.1993V2.40625H7.9984C4.90563 2.40625 2.39844 4.91344 2.39844 8.00621C2.39844 11.099 4.90562 13.6062 7.9984 13.6062H15.1992V15.9999H7.99995C3.5817 15.9999 0 12.4182 0 7.99995ZM16.7992 15.9999V13.6062H23.9983C27.0911 13.6062 29.5983 11.099 29.5983 8.00621C29.5983 4.91344 27.0911 2.40625 23.9983 2.40625H16.7993V0H23.9998C28.4181 0 31.9998 3.5817 31.9998 7.99995C31.9998 12.4182 28.4181 15.9999 23.9998 15.9999H16.7992ZM11.9989 6.40625C11.1153 6.40625 10.3989 7.12259 10.3989 8.00624C10.3989 8.88989 11.1153 9.60623 11.9989 9.60623H19.9989C20.8825 9.60623 21.5988 8.88989 21.5988 8.00624C21.5988 7.12259 20.8825 6.40625 19.9989 6.40625H11.9989Z" fill="#81B7E9"/>
<path fill-rule="evenodd" clip-rule="evenodd" d="M23.0194 7.78179C23.0194 5.69317 24.7126 4 26.8012 4C28.8899 4 30.583 5.69317 30.583 7.78179V11.1781C31.4031 11.4278 31.9998 12.1901 31.9998 13.0918V19.4917C31.9998 20.5963 31.1044 21.4917 29.9998 21.4917H23.5999C22.4953 21.4917 21.5999 20.5963 21.5999 19.4917V13.0918C21.5999 12.189 22.1979 11.426 23.0194 11.1773V7.78179ZM24.4364 7.77768C24.4364 6.47229 25.4947 5.41406 26.8001 5.41406C28.1054 5.41406 29.1637 6.47229 29.1637 7.77768V11.0868H24.4364V7.77768Z" fill="#81B7E9"/>
<ellipse cx="26.8003" cy="15.344" rx="1.41817" ry="1.41817" fill="#0060B7" fill-opacity="0.78"/>
<path d="M26.3275 16.2871H27.273L28.2184 18.6507H25.3821L26.3275 16.2871Z" fill="#0060B7" fill-opacity="0.78"/>
</svg>
